<?xml version="1.0" encoding="utf-8"?>
<!-- Generator: Adobe Illustrator 18.1.0, SVG Export Plug-In . SVG Version: 6.00 Build 0)  -->
<svg version="1.0" id="Layer_1" xmlns="//www.w3.org/2000/svg" xmlns:xlink="//www.w3.org/1999/xlink" x="0px" y="0px"
	 viewBox="0 0 150 150" enable-background="new 0 0 150 150" xml:space="preserve">
<g>
	<path fill="#fff" d="M137,63.5l-5.3-3.1V46.1c0-1.4-0.6-2.5-1.7-3.2l-22.5-13l-9.8-16.9c-0.7-1.1-1.7-1.7-3-1.7h-28
		c-1.4,0-2.4,0.6-3,1.7l-3.1,5.3H46.5c-1.4,0-2.5,0.6-3.2,1.7l-13,22.4l-16.9,9.8c-1.1,0.7-1.7,1.7-1.7,3v28c0,1.4,0.6,2.4,1.7,3
		l5.3,3.1v14.3c0,1.4,0.6,2.5,1.7,3.2l22.4,12.9l9.8,16.9c0.7,1.1,1.7,1.7,3,1.7h28c1.4,0,2.4-0.6,3-1.7l3.1-5.3h14.3
		c1.4,0,2.5-0.6,3.2-1.7l13-22.5l16.9-9.8c1.1-0.7,1.7-1.7,1.7-3v-28C138.7,65,138.1,64,137,63.5z M131.7,65.2l2.1,1.2l-1.1,0.9
		l-1.1-0.6V65.2z M131.7,68l0.6,0.4v4.6l-0.6-1.1V68z M132.3,86v5l-0.6-0.5l-1.5-0.9L132.3,86z M131.2,79.4
		c-1.5,2.7-3.1,5.4-4.7,8.1l-7.4-4.2l10.7-6.2L131.2,79.4z M65.2,83.2l9.2-5.3l6.2,10.8l-10.4,18c-1.4,0.8-2.8,1.6-4.2,2.4
		c-0.2-0.4-0.5-0.8-0.7-1.2V83.4L65.2,83.2z M29.3,87.8l-6.5-11.2V76c4.1-2.3,8.3-4.7,12.6-7.2l3.8,2.2l9.5,16.5l-10,5.8L29.3,87.8z
		 M37.5,93.9l-1.2,0.7L31.7,92l-1.2-2.1L37.5,93.9z M24.4,87.8l-1.6-0.9v-1.5l0.4,0.2L24.4,87.8z M46.4,75.1l11.9,6.8l-6,3.5
		C50.4,82,48.4,78.6,46.4,75.1z M58.7,104.8L40.2,94.1l9.2-5.3L58.7,104.8z M39,94.8l13.5,7.9h0.2l7.2,4.3l1.1,1.9L37.8,95.5
		L39,94.8z M53.1,86.6l6.7-3.9l2.3,1.3v18.2C59.2,97.2,56.2,92,53.1,86.6z M61.4,80.2l-18-10.4c-0.8-1.4-1.6-2.8-2.4-4.2
		c0.4-0.2,0.8-0.5,1.3-0.7h24.4l0.2-0.1l5.3,9.2L61.4,80.2z M85.2,66.5L76,71.8L69.8,61l10.4-18c1.4-0.8,2.8-1.6,4.2-2.4
		c0.2,0.4,0.5,0.9,0.7,1.3v24.4L85.2,66.5z M75.5,73.6l0.9,1.5l-1.5,0.9L74,74.5L75.5,73.6z M73.3,73.3l-4.4-7.6l-0.9-1.5v-0.2
		l1-1.6l5.8,10L73.3,73.3z M77.1,76.4l4.4,7.6l0.9,1.5v0.2l-1,1.6l-5.8-10L77.1,76.4z M76.7,73l7.6-4.4l1.5-0.9H86l1.6,1l-10,5.8
		L76.7,73z M68.1,58l-3.5-6c3.4-1.9,6.8-3.9,10.3-5.9L68.1,58z M67.3,59.4L66,61.7H47.8c5.1-2.9,10.3-5.9,15.6-9L67.3,59.4z
		 M45.3,58.3l10.7-18.5l5.4,9.2L45.3,58.3z M47.4,52.1v0.2l-4.3,7.2l-2,1.1l13.4-23.3l0.7,1.2L47.4,52.1z M72.8,75.2l0.9,1.5
		l-7.5,4.4L64.6,82h-0.2l-1.7-1L72.8,75.2z M82.3,91.7l3.4,6c-3.4,1.9-6.8,3.9-10.3,5.9L82.3,91.7z M83.1,90.3l1.3-2.3h18.2
		c-5.1,2.9-10.3,5.9-15.6,9L83.1,90.3z M105.1,91.4l-10.7,18.5l-5.4-9.2L105.1,91.4z M103,97.6v-0.2l4.3-7.3l2-1.1l-13.4,23.3
		l-0.7-1.2L103,97.6z M108.2,84.8H83.8l-0.2,0.1l-5.3-9.2L89,69.5l18,10.4c0.8,1.4,1.6,2.8,2.4,4.2C109,84.3,108.6,84.5,108.2,84.8z
		 M91.7,44.9l18.5,10.7l-9.3,5.4L91.7,44.9z M103.9,74.6l-11.9-6.8l6-3.4C100,67.7,101.9,71.1,103.9,74.6z M97.9,47h-0.2l-7.3-4.3
		l-1.1-2l23.3,13.5l-1.2,0.7L97.9,47z M97.3,63.1l-6.7,3.9l-2.3-1.3V47.5C91.2,52.5,94.2,57.7,97.3,63.1z M101.7,62.2l10-5.8
		l9.4,5.4l6.5,11.3v0.5c-4.1,2.3-8.3,4.7-12.6,7.2l-3.8-2.2L101.7,62.2z M112.9,55.8l1.2-0.7l4.5,2.6l1.2,2.1L112.9,55.8z
		 M125.9,61.9l1.7,1v1.5l-0.4-0.2L125.9,61.9z M127.6,58l-5.8-3.4l-1.7-3l7.6-4.4V58z M126.9,46.1c-0.1,0-1.1,0.5-3,1.5l-4.7,2.7
		l-7.6-13.1C116.7,40.2,121.8,43.1,126.9,46.1z M114.5,50.4l-25.9-15c-0.8-0.5-1.6-0.6-2.5-0.4l-0.6-1l5.2-9c4.5,2.6,9.1,5.3,13.8,8
		L114.5,50.4z M89.9,19.8l-3.6-2.1h5l-0.5,0.6L89.9,19.8z M95.2,17.1l5,8.6l-7.5-4.3L95.2,17.1z M92.6,15.6L92,16.5h-7.8l-1.5-0.9
		H92.6z M79.8,18.8c2.7,1.5,5.4,3.1,8.1,4.7l-4.2,7.4l-6.2-10.7L79.8,18.8z M76.9,15.6l-1.5,0.9h-6.9l-0.6-0.9H76.9z M73.2,17.8
		l-1.1,0.6h-3.8l0.4-0.6H73.2z M66.8,16.3l0.9,1.1L67,18.4h-1.5L66.8,16.3z M63.2,22.4h1.5l-0.2,0.4l-2.2,1.3L63.2,22.4z M62.2,29
		l11.2-6.5H74c2.3,4.1,4.7,8.3,7.2,12.6l-2.2,3.8l-16.5,9.5l-5.8-10L62.2,29z M56.1,37.1L55.4,36l2.6-4.6l2.1-1.2L56.1,37.1z
		 M58.4,22.4L55,28.3L52,30l-4.4-7.6H58.4z M46.5,23.1c0,0.1,0.5,1.1,1.5,3l2.7,4.7l-13.1,7.6C40.5,33.3,43.5,28.2,46.5,23.1z
		 M33.3,45.7l17.5-10.1l-15,26c-0.5,0.8-0.6,1.6-0.4,2.5l-1,0.6l-9-5.2C28,54.9,30.6,50.3,33.3,45.7z M26.1,49.9l-4.3,7.5l-4.3-2.5
		L26.1,49.9z M20.2,60.1l-2.1,3.6v-5l0.6,0.5L20.2,60.1z M16,57.4l0.9,0.6v7.8L16,67.4V57.4z M16,73.1l0.9,1.5v6.9L16,82.2V73.1z
		 M18.7,84.5l-2.1-1.2l1.1-0.9l1.1,0.6V84.5z M18.7,81.7l-0.6-0.4v-4.5l0.6,1.1V81.7z M19.1,70.3c1.5-2.7,3.1-5.4,4.7-8.1l7.4,4.2
		l-10.7,6.2L19.1,70.3z M22.8,91.7l5.8,3.4l1.7,3l-7.6,4.3V91.7z M23.4,103.6c0.1,0,1.1-0.5,3-1.5l4.7-2.7l7.6,13.1
		C33.6,109.5,28.6,106.6,23.4,103.6z M35.9,99.2l26,15c0.8,0.5,1.6,0.6,2.5,0.4l0.6,1.1l-5.2,9c-4.5-2.6-9.1-5.3-13.8-8L35.9,99.2z
		 M60.4,129.9l3.6,2.1h-5l0.5-0.6L60.4,129.9z M55.2,132.6l-5-8.6l7.5,4.3L55.2,132.6z M57.8,134.1l0.6-0.9h7.9l1.5,0.9H57.8z
		 M70.6,130.9c-2.7-1.5-5.4-3.1-8.1-4.7l4.2-7.4l6.2,10.7L70.6,130.9z M73.4,134.1l1.5-0.9h6.9l0.6,0.9H73.4z M77.1,132l1.1-0.6h3.8
		l-0.4,0.6H77.1z M83.6,133.4l-0.8-1.1l0.6-1.1h1.5L83.6,133.4z M87.2,127.3h-1.5l0.2-0.4l2.2-1.3L87.2,127.3z M88.2,120.7
		l-11.3,6.5h-0.5c-2.3-4.1-4.7-8.3-7.2-12.6l2.1-3.8l16.5-9.5l5.8,10L88.2,120.7z M94.3,112.6l0.7,1.2l-2.6,4.6l-2.1,1.2L94.3,112.6
		z M92,127.3l3.4-5.8l3-1.7l4.4,7.6H92z M103.9,126.6c0-0.1-0.5-1.1-1.5-3l-2.7-4.7l13.1-7.6C109.9,116.4,106.9,121.5,103.9,126.6z
		 M117.1,104l-17.5,10.1l15-25.9c0.5-0.8,0.6-1.6,0.4-2.5l1.1-0.6l9,5.2C122.4,94.8,119.7,99.4,117.1,104z M124.3,99.8l4.3-7.5
		l4.3,2.5L124.3,99.8z M134.4,92.3l-0.9-0.6v-7.8l0.9-1.5V92.3z M134.4,76.6l-0.9-1.5v-7l0.9-0.6V76.6z"/>
</g>
</svg>
